<?xml version="1.0" encoding="UTF-8"?>
<svg xmlns="http://www.w3.org/2000/svg" viewBox="2263310.72462615 1015716.738481949 19200 19100">
  <style>
    line, polyline, path, circle { fill: none; stroke: #111827; stroke-width: 8; vector-effect: non-scaling-stroke; }
    polyline.closed { fill: rgba(17, 24, 39, 0.03); }
    text { fill: #111827; font-family: Arial, sans-serif; dominant-baseline: middle; vector-effect: non-scaling-stroke; }
  </style>
  <polyline points="2263310.72462615,1015716.738481949 2282510.72462615,1015716.738481949 2282510.72462615,1034816.738481949 2263310.72462615,1034816.738481949" class="closed" />
  <polyline points="2279710.72462615,1015716.738481949 2279710.72462615,1022356.738481949 2282510.72462615,1022356.738481949" />
  <polyline points="2279710.72462615,1022356.738481949 2279210.72462615,1022356.738481949 2279210.72462615,1015716.738481949" />
  <polyline points="2276030.72462615,1015716.738481949 2276030.72462615,1019556.738481949 2277630.72462615,1019556.738481949" />
  <polyline points="2270210.72462615,1034816.738481949 2270210.72462615,1030621.738481949" />
  <polyline points="2270210.72462615,1019216.738481949 2271685.72462615,1019216.738481949" />
  <polyline points="2276510.72462615,1034816.738481949 2276510.72462615,1030716.738481949" />
  <polyline points="2270210.72462615,1028221.738481949 2263310.72462615,1028221.738481949" />
  <polyline points="2270210.72462615,1021841.738481949 2263310.72462615,1021841.738481949" />
  <polyline points="2277030.72462615,1019556.738481949 2277030.72462615,1015716.738481949" />
  <polyline points="2279210.72462615,1022356.7384819499 2273357.72462615,1022356.7384819499 2273357.72462615,1025516.738481949 2273357.72462615,1026016.738481949 2276510.72462615,1026016.738481949" />
  <polyline points="2279210.72462615,1021856.738481949 2279710.72462615,1021856.738481949" />
  <polyline points="2279210.72462615,1020956.738481949 2279710.72462615,1020956.738481949" />
  <polyline points="2278530.72462615,1019556.738481949 2278530.72462615,1020456.738481949 2277630.72462615,1019556.738481949" />
  <polyline points="2272585.72462615,1019216.738481949 2272585.72462615,1020116.738481949 2271685.72462615,1019216.738481949" />
  <polyline points="2270210.72462615,1021041.738481949 2271110.72462615,1021041.738481949 2270210.72462615,1020141.738481949" />
  <polyline points="2270210.72462615,1023971.738481949 2271110.72462615,1023971.738481949 2270210.72462615,1023071.738481949" />
  <polyline points="2270210.72462615,1030621.738481949 2271110.72462615,1030621.738481949 2270210.72462615,1029721.738481949" />
  <polyline points="2276510.72462615,1030716.738481949 2275610.72462615,1030716.738481949 2276510.72462615,1029816.738481949" />
  <polyline points="2276510.72462615,1028256.738481949 2275610.72462615,1028256.738481949 2276510.72462615,1027356.738481949" />
  <polyline points="2276660.72462615,1027356.738481949 2276360.72462615,1027356.738481949" />
  <polyline points="2276660.72462615,1028256.738481949 2276360.72462615,1028256.738481949" />
  <polyline points="2276660.72462615,1029816.738481949 2276360.72462615,1029816.738481949" />
  <polyline points="2276660.72462615,1030716.738481949 2276360.72462615,1030716.738481949" />
  <polyline points="2270360.72462615,1030621.738481949 2270060.72462615,1030621.738481949" />
  <polyline points="2270360.72462615,1029721.738481949 2270060.72462615,1029721.738481949" />
  <polyline points="2270360.72462615,1023971.738481949 2270060.72462615,1023971.738481949" />
  <polyline points="2270360.72462615,1023071.738481949 2270060.72462615,1023071.738481949" />
  <polyline points="2270360.72462615,1021041.738481949 2270060.72462615,1021041.738481949" />
  <polyline points="2270360.72462615,1020141.738481949 2270060.72462615,1020141.738481949" />
  <polyline points="2271685.72462615,1019066.738481949 2271685.72462615,1019366.738481949" />
  <polyline points="2272585.72462615,1019066.738481949 2272585.72462615,1019366.738481949" />
  <polyline points="2277630.72462615,1019406.738481949 2277630.72462615,1019706.738481949" />
  <polyline points="2278530.72462615,1019406.738481949 2278530.72462615,1019706.738481949" />
  <polyline points="2276510.72462615,1028856.738481949 2282510.72462615,1028856.738481949" />
  <polyline points="2279710.72462615,1020656.738481949 2281060.72462615,1020656.738481949" />
  <polyline points="2279710.72462615,1020356.738481949 2281060.72462615,1020356.738481949" />
  <polyline points="2279710.72462615,1020056.738481949 2281060.72462615,1020056.738481949" />
  <polyline points="2279710.72462615,1019756.738481949 2281060.72462615,1019756.738481949" />
  <polyline points="2279710.72462615,1019456.738481949 2281060.72462615,1019456.738481949" />
  <polyline points="2279710.72462615,1019156.738481949 2281060.72462615,1019156.738481949" />
  <polyline points="2279710.72462615,1018856.738481949 2281060.72462615,1018856.738481949" />
  <polyline points="2279710.72462615,1018556.738481949 2281060.72462615,1018556.738481949" />
  <polyline points="2279710.72462615,1018256.738481949 2281060.72462615,1018256.738481949" />
  <polyline points="2279710.72462615,1017956.738481949 2281060.72462615,1017956.738481949" />
  <polyline points="2279710.72462615,1017656.738481949 2281060.72462615,1017656.738481949" />
  <polyline points="2279710.72462615,1017356.738481949 2281060.72462615,1017356.738481949" />
  <polyline points="2279710.72462615,1017656.738481949 2281060.72462615,1017656.738481949" />
  <polyline points="2279710.72462615,1017056.738481949 2282510.72462615,1017056.738481949" />
  <polyline points="2281160.72462615,1017056.738481949 2281160.72462615,1020956.738481949" />
  <polyline points="2281060.72462615,1017056.738481949 2281060.72462615,1020956.738481949" />
  <polyline points="2281160.72462615,1020356.738481949 2282510.72462615,1020356.738481949" />
  <polyline points="2281160.72462615,1020056.738481949 2282510.72462615,1020056.738481949" />
  <polyline points="2281160.72462615,1019756.738481949 2282510.72462615,1019756.738481949" />
  <polyline points="2281160.72462615,1019456.738481949 2282510.72462615,1019456.738481949" />
  <polyline points="2281160.72462615,1019156.738481949 2282510.72462615,1019156.738481949" />
  <polyline points="2281160.72462615,1018856.738481949 2282510.72462615,1018856.738481949" />
  <polyline points="2281160.72462615,1018556.738481949 2282510.72462615,1018556.738481949" />
  <polyline points="2281160.72462615,1018256.738481949 2282510.72462615,1018256.738481949" />
  <polyline points="2281160.72462615,1017956.738481949 2282510.72462615,1017956.738481949" />
  <polyline points="2281160.72462615,1017656.738481949 2282510.72462615,1017656.738481949" />
  <polyline points="2281160.72462615,1017656.738481949 2282510.72462615,1017656.738481949" />
  <polyline points="2281160.72462615,1017356.738481949 2282510.72462615,1017356.738481949" />
  <polyline points="2281060.72462615,1020956.738481949 2281160.72462615,1020956.738481949" />
  <polyline points="2281160.72462615,1020656.738481949 2282510.72462615,1020656.738481949" />
  <polyline points="2281160.72462615,1020956.738481949 2282510.72462615,1020956.738481949" />
  <polyline points="2281835.72462615,1017056.738481949 2281835.72462615,1020956.738481949" />
  <polyline points="2280385.72462615,1020956.738481949 2280385.72462615,1017056.738481949" />
  <polyline points="2280385.72462615,1017056.738481949 2279710.72462615,1017731.738481949" />
  <polyline points="2280385.72462615,1017056.738481949 2281060.72462615,1017731.7384819499" />
  <path d="M 2280385.72462615 1020956.738481949 A 725 725 0 0 0 2281835.72462615 1020956.738481949" />
  <circle cx="2281835.72462615" cy="1017056.738481949" r="23.45205710867077" />
  <circle cx="2270100.000231598" cy="1020588.2605039899" r="328.9752339423046" />
  <polyline points="2270210.72462615,1020141.738481949 2270210.72462615,1015716.738481949" />
  <text x="2269826.010108378" y="1020713.4490876639" font-size="247.1945721484839">301</text>
  <polyline points="2270210.72462615,1029721.738481949 2270210.72462615,1023971.738481949" />
  <polyline points="2276510.72462615,1027356.738481949 2276510.72462615,1022356.7384819499" />
  <polyline points="2276510.72462615,1029816.738481949 2276510.72462615,1028256.738481949" />
  <polyline points="2272585.72462615,1019216.738481949 2273985.72462615,1019216.738481949 2273985.72462615,1015716.738481949" />
  <polyline points="2278530.72462615,1019556.738481949 2279210.72462615,1019556.738481949" />
  <circle cx="2270100.000231598" cy="1023528.2576798269" r="328.9752339423046" />
  <text x="2269826.010108378" y="1023653.4462635019" font-size="247.1945721484839">302</text>
  <circle cx="2270100.000231598" cy="1030188.2549173939" r="328.9752339423046" />
  <text x="2269826.010108378" y="1030313.4435010679" font-size="247.1945721484839">303</text>
  <circle cx="2276592.255747747" cy="1030317.5975689309" r="328.9752339423046" />
  <text x="2276318.265624527" y="1030442.7861526059" font-size="247.1945721484839">304</text>
  <circle cx="2276664.670701558" cy="1027812.6951962479" r="328.9752339423046" />
  <text x="2276390.680578338" y="1027937.8837799219" font-size="247.1945721484839">305</text>
  <circle cx="2272124.102288763" cy="1019064.67944595" r="328.9752339423046" />
  <text x="2271530.330612235" y="1019132.80368145" font-size="247.1945721484839">оффис</text>
  <circle cx="2278097.408436789" cy="1019428.643848697" r="328.9752339423046" />
  <text x="2277911.621488972" y="1019553.8324323719" font-size="247.1945721484839">00</text>
  <polyline points="2270210.72462615,1023071.738481949 2270210.72462615,1021041.738481949" />
  <circle cx="2270310.375574271" cy="1029421.738481949" r="99.65094812064955" />
  <text x="2270225.214730693" y="1029473.254036604" font-size="98.87782885939357">QR-1</text>
  <circle cx="2279810.375574271" cy="1022007.5661706079" r="99.65094812064955" />
  <text x="2279725.214730693" y="1022059.081725262" font-size="98.87782885939357">QR-2</text>
</svg>
